<?xml version="1.0" encoding="UTF-8"?>
<svg version="1.1" xmlns="http://www.w3.org/2000/svg" width="48" height="50">
<path d="M0 0 C0.99 0.66 1.98 1.32 3 2 C3 2.66 3 3.32 3 4 C3.61488281 4.25652344 4.22976562 4.51304688 4.86328125 4.77734375 C8.49843691 6.85742368 9.60675256 10.17514147 11 14 C12.70236764 20.51040599 11.96675678 25.97624289 9 32 C7.47845746 34.31808676 5.98118675 36.01881325 4 38 C3.34 38 2.68 38 2 38 C2 38.66 2 39.32 2 40 C-4.47531914 43.61413161 -10.69262357 43.68063532 -18 43 C-24.23409745 40.92196752 -29.39158717 36.49044567 -32.9375 31 C-35.13123072 24.85755398 -35.12782273 17.02185841 -33.37890625 10.78515625 C-30.51159021 5.16521682 -24.93847687 0.77855179 -19.625 -2.4375 C-12.44734868 -3.97556814 -6.46407192 -3.42991571 0 0 Z M-15 12 C-17.32590854 15.63423209 -17.16265833 18.77088331 -17 23 C-14.47946405 24.26026798 -13.1457902 23.91874445 -10.375 23.5625 C-9.55773437 23.46066406 -8.74046875 23.35882813 -7.8984375 23.25390625 C-7.27195312 23.17011719 -6.64546875 23.08632813 -6 23 C-5.97311849 21.35425434 -5.95365877 19.70838587 -5.9375 18.0625 C-5.92589844 17.14597656 -5.91429687 16.22945312 -5.90234375 15.28515625 C-5.74050951 13.03406673 -5.74050951 13.03406673 -7 12 C-9.67058851 11.85884839 -12.32432238 11.95752893 -15 12 Z " fill="#E4E4E4" transform="translate(35,5)"/>
<path d="M0 0 C0.91458984 0.29197266 0.91458984 0.29197266 1.84765625 0.58984375 C1.30496094 0.89277344 0.76226563 1.19570312 0.203125 1.5078125 C-0.51230469 1.92675781 -1.22773438 2.34570312 -1.96484375 2.77734375 C-3.02638672 3.38642578 -3.02638672 3.38642578 -4.109375 4.0078125 C-7.52000491 6.64893126 -8.97196809 9.26001538 -9.55078125 13.52734375 C-9.54304687 14.53796875 -9.5353125 15.54859375 -9.52734375 16.58984375 C-9.53507813 17.60046875 -9.5428125 18.61109375 -9.55078125 19.65234375 C-9.10091875 22.96897707 -7.95181149 24.80798942 -6.15234375 27.58984375 C-5.96484375 30.40234375 -5.96484375 30.40234375 -6.15234375 32.58984375 C-6.81234375 32.58984375 -7.47234375 32.58984375 -8.15234375 32.58984375 C-7.47694358 35.78246921 -7.47694358 35.78246921 -4.71484375 36.83984375 C1.40042707 38.12726919 6.69580369 37.68533233 12.28515625 34.83984375 C16.09676661 31.49306392 17.74020169 29.10234803 18.10546875 23.9609375 C18.06164063 22.66285156 18.0178125 21.36476563 17.97265625 20.02734375 C17.73279895 11.96014313 17.73279895 11.96014313 18.84765625 8.58984375 C19.83765625 8.91984375 20.82765625 9.24984375 21.84765625 9.58984375 C21.84765625 8.59984375 21.84765625 7.60984375 21.84765625 6.58984375 C24.84765625 7.58984375 24.84765625 7.58984375 25.83203125 9.55859375 C27.95204995 16.56763518 29.01316083 22.40751102 25.5390625 29.1171875 C21.59690525 35.34009408 21.59690525 35.34009408 17.84765625 36.58984375 C17.84765625 37.24984375 17.84765625 37.90984375 17.84765625 38.58984375 C11.37233711 42.20397536 5.15503268 42.27047907 -2.15234375 41.58984375 C-5.52734375 40.46484375 -5.52734375 40.46484375 -8.15234375 38.58984375 C-8.76980469 38.15285156 -9.38726563 37.71585938 -10.0234375 37.265625 C-13.3567398 34.7103168 -14.93969342 33.35538495 -16.08984375 29.21484375 C-16.12078125 27.91546875 -16.12078125 27.91546875 -16.15234375 26.58984375 C-14.83234375 28.23984375 -13.51234375 29.88984375 -12.15234375 31.58984375 C-10.83234375 30.92984375 -9.51234375 30.26984375 -8.15234375 29.58984375 C-8.81234375 28.47609375 -9.47234375 27.36234375 -10.15234375 26.21484375 C-12.56571735 21.31889588 -13.14250769 16.96745825 -12.15234375 11.58984375 C-10.20664526 6.94887441 -5.78896303 -1.10315992 0 0 Z " fill="#CCCDCD" transform="translate(19.15234375,6.41015625)"/>
<path d="M0 0 C3.38367131 0.71577662 4.78940246 1.32486459 7.25 3.6875 C7.70410156 5.86401367 7.70410156 5.86401367 7.640625 8.35546875 C7.62128906 9.69448242 7.62128906 9.69448242 7.6015625 11.06054688 C7.56804688 11.98931641 7.53453125 12.91808594 7.5 13.875 C7.48195313 14.81537109 7.46390625 15.75574219 7.4453125 16.72460938 C7.3981655 19.04659889 7.33238231 21.3665369 7.25 23.6875 C5.93 23.6875 4.61 23.6875 3.25 23.6875 C3.25 22.6975 3.25 21.7075 3.25 20.6875 C1.7959375 20.935 1.7959375 20.935 0.3125 21.1875 C-3.987532 21.79301471 -8.42569561 22.2071211 -12.75 21.6875 C-15.36042212 19.07707788 -15.03846788 17.17628815 -15.07226562 13.61523438 C-15.06904297 12.83470703 -15.06582031 12.05417969 -15.0625 11.25 C-15.07861328 10.47333984 -15.09472656 9.69667969 -15.11132812 8.89648438 C-15.1162523 3.17951489 -15.1162523 3.17951489 -13.46166992 0.95678711 C-9.85892004 -1.71482844 -4.25959258 -0.35496605 0 0 Z M-6.75 4.6875 C-9.07590854 8.32173209 -8.91265833 11.45838331 -8.75 15.6875 C-6.22946405 16.94776798 -4.8957902 16.60624445 -2.125 16.25 C-1.30773437 16.14816406 -0.49046875 16.04632813 0.3515625 15.94140625 C0.97804688 15.85761719 1.60453125 15.77382813 2.25 15.6875 C2.27688151 14.04175434 2.29634123 12.39588587 2.3125 10.75 C2.32410156 9.83347656 2.33570313 8.91695312 2.34765625 7.97265625 C2.50949049 5.72156673 2.50949049 5.72156673 1.25 4.6875 C-1.42058851 4.54634839 -4.07432238 4.64502893 -6.75 4.6875 Z " fill="#195A8D" transform="translate(26.75,12.3125)"/>
<path d="M0 0 C0.66 0.33 1.32 0.66 2 1 C4.0077921 7.02337631 4.04953453 13.73946409 1.375 19.5 C-3.49148429 24.62261504 -7.53728409 26.63128225 -14.51953125 27.1171875 C-18.25043521 26.94092432 -20.73733987 25.77318485 -24 24 C-24 23.01 -24 22.02 -24 21 C-23.34 21 -22.68 21 -22 21 C-22.66 18.36 -23.32 15.72 -24 13 C-22.515 13.99 -22.515 13.99 -21 15 C-18.23344676 15.14245897 -15.57346694 15.18769445 -12.8125 15.125 C-11.68811523 15.11146484 -11.68811523 15.11146484 -10.54101562 15.09765625 C-8.69387346 15.07412578 -6.84689588 15.03825561 -5 15 C-5 15.99 -5 16.98 -5 18 C-3.68 18 -2.36 18 -1 18 C-1.01160156 16.86820313 -1.02320312 15.73640625 -1.03515625 14.5703125 C-1.04453454 13.08854331 -1.0536347 11.60677235 -1.0625 10.125 C-1.07087891 9.37863281 -1.07925781 8.63226563 -1.08789062 7.86328125 C-1.11328125 2.2265625 -1.11328125 2.2265625 0 0 Z " fill="#F8FAFB" transform="translate(35,18)"/>
<path d="M0 0 C0.69222656 0.32226562 1.38445313 0.64453125 2.09765625 0.9765625 C2.42765625 0.3165625 2.75765625 -0.3434375 3.09765625 -1.0234375 C3.09765625 -0.3634375 3.09765625 0.2965625 3.09765625 0.9765625 C4.41765625 1.6365625 5.73765625 2.2965625 7.09765625 2.9765625 C7.09765625 4.2965625 7.09765625 5.6165625 7.09765625 6.9765625 C7.40170303 8.64881979 7.72894537 10.31736354 8.09765625 11.9765625 C6.44765625 10.3265625 4.79765625 8.6765625 3.09765625 6.9765625 C3.42765625 8.9565625 3.75765625 10.9365625 4.09765625 12.9765625 C3.76765625 12.3165625 3.43765625 11.6565625 3.09765625 10.9765625 C1.77765625 11.3065625 0.45765625 11.6365625 -0.90234375 11.9765625 C-1.00546875 11.3578125 -1.10859375 10.7390625 -1.21484375 10.1015625 C-1.77759748 7.61129766 -1.77759748 7.61129766 -4.90234375 5.9765625 C-10.58792478 4.81623984 -16.12742639 4.89745404 -21.90234375 4.9765625 C-22.23234375 10.9165625 -22.56234375 16.8565625 -22.90234375 22.9765625 C-23.56234375 22.9765625 -24.22234375 22.9765625 -24.90234375 22.9765625 C-26.99539951 18.79045098 -26.32598983 13.53523302 -25.90234375 8.9765625 C-21.05263738 -1.4689589 -10.4046887 -3.6689481 0 0 Z " fill="#F3F5F6" transform="translate(34.90234375,8.0234375)"/>
<path d="M0 0 C3 1 3 1 3.984375 2.96875 C5.8504214 9.13812789 6.1271174 13.64715647 5 20 C4.34 19.34 3.68 18.68 3 18 C1.68 20.64 0.36 23.28 -1 26 C-2.65 26 -4.3 26 -6 26 C-5.67128906 25.33097656 -5.34257813 24.66195312 -5.00390625 23.97265625 C-3.76697704 20.30999816 -3.84172385 17.29536321 -3.9375 13.4375 C-4.12040948 5.41334052 -4.12040948 5.41334052 -3 2 C-2.01 2.33 -1.02 2.66 0 3 C0 2.01 0 1.02 0 0 Z " fill="#C5C5C6" transform="translate(41,13)"/>
<path d="M0 0 C0.99 0.33 1.98 0.66 3 1 C3.84375 3.984375 3.84375 3.984375 4.5 7.75 C5.3355392 12.5046159 6.25243739 16.00076998 9 20 C8.01 20.99 7.02 21.98 6 23 C2.17734712 21.21609532 0.37871427 19.56807141 -2 16 C-2.265625 12.71484375 -2.265625 12.71484375 -2.25 8.9375 C-2.25515625 7.68839844 -2.2603125 6.43929688 -2.265625 5.15234375 C-2 2 -2 2 0 0 Z " fill="#D6D7D7" transform="translate(3,16)"/>
<path d="M0 0 C0.33 0 0.66 0 1 0 C2.03303199 14.69201047 2.03303199 14.69201047 -1.875 19.9375 C-3.4921875 21.77734375 -3.4921875 21.77734375 -5 23 C-5.66 23 -6.32 23 -7 23 C-7 23.66 -7 24.32 -7 25 C-12.82478551 28.03901852 -17.48208608 28.3540919 -24 28 C-24 27.67 -24 27.34 -24 27 C-22.71416016 26.77957031 -22.71416016 26.77957031 -21.40234375 26.5546875 C-14.25223408 25.15207298 -8.62853544 23.89720027 -4 18 C-0.64178812 12.29103981 -0.33976642 6.47899417 0 0 Z " fill="#8D8D8D" transform="translate(44,20)"/>
<path d="M0 0 C0.91458984 0.29197266 0.91458984 0.29197266 1.84765625 0.58984375 C1.30496094 0.89277344 0.76226562 1.19570312 0.203125 1.5078125 C-0.51230469 1.92675781 -1.22773438 2.34570312 -1.96484375 2.77734375 C-3.02638672 3.38642578 -3.02638672 3.38642578 -4.109375 4.0078125 C-7.52000491 6.64893126 -8.97196809 9.26001538 -9.55078125 13.52734375 C-9.54304687 14.53796875 -9.5353125 15.54859375 -9.52734375 16.58984375 C-9.53507813 17.60046875 -9.5428125 18.61109375 -9.55078125 19.65234375 C-9.10091875 22.96897707 -7.95181149 24.80798942 -6.15234375 27.58984375 C-5.96484375 30.40234375 -5.96484375 30.40234375 -6.15234375 32.58984375 C-8.13234375 33.08484375 -8.13234375 33.08484375 -10.15234375 33.58984375 C-9.76046875 32.84734375 -9.36859375 32.10484375 -8.96484375 31.33984375 C-8.56265625 29.97859375 -8.56265625 29.97859375 -8.15234375 28.58984375 C-9.40730062 26.41656177 -9.40730062 26.41656177 -11.15234375 24.58984375 C-12.82116092 19.58339225 -13.24869251 14.2602036 -11.2109375 9.296875 C-5.06867618 -0.96590018 -5.06867618 -0.96590018 0 0 Z " fill="#939494" transform="translate(19.15234375,6.41015625)"/>
<path d="M0 0 C9.27734375 -0.09765625 9.27734375 -0.09765625 12 0 C13 1 13 1 13.1328125 3.6875 C13.13023438 4.780625 13.12765625 5.87375 13.125 7 C13.12757812 8.093125 13.13015625 9.18625 13.1328125 10.3125 C13 13 13 13 12 14 C7.99779347 14.14355117 4.00558317 14.04216403 0 14 C0 9.38 0 4.76 0 0 Z M3 1 C0.67409146 4.63423209 0.83734167 7.77088331 1 12 C3.52053595 13.26026798 4.8542098 12.91874445 7.625 12.5625 C8.44226563 12.46066406 9.25953125 12.35882813 10.1015625 12.25390625 C10.72804688 12.17011719 11.35453125 12.08632813 12 12 C12.02688151 10.35425434 12.04634123 8.70838587 12.0625 7.0625 C12.07410156 6.14597656 12.08570313 5.22945312 12.09765625 4.28515625 C12.25949049 2.03406673 12.25949049 2.03406673 11 1 C8.32941149 0.85884839 5.67567762 0.95752893 3 1 Z " fill="#CCDBE6" transform="translate(17,16)"/>
<path d="M0 0 C1.65 0.33 3.3 0.66 5 1 C5 2.32 5 3.64 5 5 C5.30404678 6.67225729 5.63128912 8.34080104 6 10 C4.35 8.35 2.7 6.7 1 5 C1.33 6.98 1.66 8.96 2 11 C1.67 10.34 1.34 9.68 1 9 C-0.32 9.33 -1.64 9.66 -3 10 C-3.36923077 4.58461538 -3.36923077 4.58461538 -1.5 1.625 C-1.005 1.08875 -0.51 0.5525 0 0 Z " fill="#DBDBDB" transform="translate(37,10)"/>
<path d="M0 0 C0.66 0.66 1.32 1.32 2 2 C1.34 2 0.68 2 0 2 C-0.33 7.94 -0.66 13.88 -1 20 C-1.66 20 -2.32 20 -3 20 C-5.08621364 15.82757272 -4.45549649 10.54313381 -4 6 C-2.93603263 3.47249673 -1.8424675 2.07277594 0 0 Z " fill="#DEE2E6" transform="translate(13,11)"/>
<path d="M0 0 C0 0.99 0 1.98 0 3 C-4.45478087 7.45478087 -9.2210668 8.89894788 -15.4375 9.125 C-16.283125 9.08375 -17.12875 9.0425 -18 9 C-14.86956964 6.26087343 -11.68739642 5.04277201 -7.8046875 3.74609375 C-5.79450033 3.05003991 -5.79450033 3.05003991 -4 1 C-1.875 0.375 -1.875 0.375 0 0 Z " fill="#D4D4D4" transform="translate(38,38)"/>
<path d="M0 0 C0.33 0 0.66 0 1 0 C1 6.6 1 13.2 1 20 C-0.32 20 -1.64 20 -3 20 C-3.33 18.68 -3.66 17.36 -4 16 C-3.34 16 -2.68 16 -2 16 C-2 16.99 -2 17.98 -2 19 C-1.34 19 -0.68 19 0 19 C0 16.03 0 13.06 0 10 C-0.99 10 -1.98 10 -3 10 C-3 7.03 -3 4.06 -3 1 C-2.67 1.99 -2.34 2.98 -2 4 C-1.34 4 -0.68 4 0 4 C0 2.68 0 1.36 0 0 Z " fill="#628EB1" transform="translate(33,16)"/>
<path d="M0 0 C1.1875 1.625 1.1875 1.625 1.1875 3.625 C-1.43901431 3.34380143 -4.06319335 3.05056162 -6.6875 2.75 C-7.43386719 2.67136719 -8.18023437 2.59273438 -8.94921875 2.51171875 C-14.5859375 1.8515625 -14.5859375 1.8515625 -16.8125 -0.375 C-15.25034452 -0.54486545 -13.6877548 -0.71073964 -12.125 -0.875 C-11.25488281 -0.9678125 -10.38476562 -1.060625 -9.48828125 -1.15625 C-2.2989023 -1.74399485 -2.2989023 -1.74399485 0 0 Z " fill="#C3C3C3" transform="translate(35.8125,5.375)"/>
<path d="M0 0 C-2.37694402 1.18847201 -3.97678902 1.10141265 -6.625 1.1875 C-12.50959349 1.69067539 -15.65105381 4.24796799 -20 8 C-20.99 8.495 -20.99 8.495 -22 9 C-22 6.75 -22 6.75 -21 4 C-15.34996096 -0.48462629 -6.83217615 -2.27739205 0 0 Z " fill="#F5F5F5" transform="translate(31,4)"/>
<path d="M0 0 C0.99 0 1.98 0 3 0 C3 0.66 3 1.32 3 2 C-2.82478551 5.03901852 -7.48208608 5.3540919 -14 5 C-14 4.67 -14 4.34 -14 4 C-13.07316406 3.79503906 -12.14632813 3.59007812 -11.19140625 3.37890625 C-9.99386719 3.10949219 -8.79632813 2.84007812 -7.5625 2.5625 C-6.36753906 2.29566406 -5.17257813 2.02882812 -3.94140625 1.75390625 C-1.1295314 1.29933252 -1.1295314 1.29933252 0 0 Z " fill="#979797" transform="translate(34,43)"/>
<path d="M0 0 C3.3 0.66 6.6 1.32 10 2 C9.01 2.33 8.02 2.66 7 3 C7 3.66 7 4.32 7 5 C1.25 4.125 1.25 4.125 -1 3 C-0.67 2.01 -0.34 1.02 0 0 Z " fill="#C1C1C1" transform="translate(13,43)"/>
<path d="M0 0 C2.31 0.33 4.62 0.66 7 1 C7 2.65 7 4.3 7 6 C6.34 6 5.68 6 5 6 C5 5.01 5 4.02 5 3 C2.03 2.505 2.03 2.505 -1 2 C-0.67 1.34 -0.34 0.68 0 0 Z " fill="#11548A" transform="translate(26,14)"/>
<path d="M0 0 C0.66 1.32 1.32 2.64 2 4 C1.01 4.99 0.02 5.98 -1 7 C-1.66 6.67 -2.32 6.34 -3 6 C-1.125 1.125 -1.125 1.125 0 0 Z " fill="#EDEDEE" transform="translate(8,10)"/>
</svg>
